<svg width="244" height="46" viewBox="0 0 244 46" fill="none" xmlns="http://www.w3.org/2000/svg">
<circle cx="221" cy="23" r="22" stroke="#E2E3E4" stroke-width="2"/>
<path opacity="0.3" d="M221.004 28C219.057 28 216.556 27.97 215.543 27.913C214.615 27.849 214.129 27.7321 213.679 26.9351C213.229 26.1381 213 24.735 213 22.507V22.4969C213 20.2369 213.209 18.869 213.679 18.061C214.113 17.294 214.584 17.147 215.545 17.092C216.566 17.024 219.124 17 221.004 17C222.884 17 225.435 17.024 226.458 17.092C227.419 17.147 227.891 17.292 228.32 18.061C228.791 18.861 229.001 20.228 229.001 22.499V22.506C229.001 24.778 228.792 26.145 228.322 26.937C227.892 27.699 227.422 27.849 226.458 27.913C225.448 27.969 222.95 28 221.004 28ZM219.004 19.5V25.5L224.004 22.5L219.004 19.5Z" fill="#131821"/>
<circle cx="155" cy="23" r="22" stroke="#E3E3E4" stroke-width="2"/>
<path opacity="0.3" d="M163 18.5378C162.398 18.8003 161.762 18.9748 161.11 19.0558C161.797 18.6484 162.31 18.0034 162.553 17.2428C161.91 17.6241 161.207 17.8927 160.473 18.0368C160.023 17.5569 159.439 17.2234 158.798 17.0795C158.156 16.9356 157.486 16.9879 156.874 17.2298C156.262 17.4716 155.738 17.8917 155.368 18.4356C154.998 18.9795 154.8 19.6221 154.8 20.2798C154.797 20.5312 154.823 20.7821 154.876 21.0278C153.571 20.9642 152.294 20.6259 151.129 20.035C149.964 19.4441 148.936 18.614 148.114 17.5988C147.692 18.3204 147.561 19.176 147.748 19.9907C147.936 20.8055 148.427 21.518 149.122 21.9828C148.603 21.9701 148.095 21.833 147.64 21.5828V21.6188C147.642 22.376 147.904 23.1095 148.382 23.6963C148.861 24.2832 149.527 24.6876 150.268 24.8418C149.987 24.9158 149.698 24.9521 149.408 24.9498C149.2 24.9535 148.991 24.9347 148.787 24.8938C148.999 25.5448 149.407 26.1141 149.956 26.5234C150.505 26.9326 151.168 27.1616 151.852 27.1788C150.691 28.0871 149.259 28.5801 147.785 28.5788C147.522 28.5783 147.26 28.5609 147 28.5268C148.5 29.4933 150.248 30.0046 152.032 29.9988C153.26 30.0073 154.478 29.7717 155.614 29.3057C156.751 28.8396 157.783 28.1524 158.652 27.284C159.52 26.4156 160.208 25.3833 160.674 24.247C161.14 23.1107 161.376 21.893 161.368 20.6648C161.368 20.5198 161.363 20.3798 161.356 20.2408C162.003 19.7778 162.56 19.2007 163 18.5378Z" fill="#131821"/>
<circle cx="89" cy="23" r="22" stroke="#E3E3E4" stroke-width="2"/>
<path opacity="0.3" d="M82.3514 29.6498C80.8354 28.1338 81.0085 26.1079 81.0085 22.9959C81.0085 19.9559 80.8084 17.8821 82.3514 16.3441C83.2591 15.4926 84.4631 15.0283 85.7075 15.0506C87.1805 14.9846 90.8274 14.9816 92.2994 15.0506C95.3104 15.1896 96.8184 16.892 96.9504 19.702C97.0154 21.174 97.0194 24.8198 96.9504 26.2928C96.8414 28.6718 95.7224 29.9931 94.2394 30.5721C93.1504 30.9941 92.0865 30.992 89.0035 30.992C88.3785 30.992 87.7925 31.0008 87.2425 31.0008C85.1485 30.9988 83.5744 30.8728 82.3514 29.6498ZM94.6295 28.6307C95.6215 27.6307 95.5585 26.2909 95.5585 22.9959C95.5585 20.8609 95.5505 20.608 95.5115 19.765C95.3445 16.065 92.5565 16.4398 89.0045 16.4398L88.9734 16.4198C86.8364 16.4198 86.5854 16.4308 85.7364 16.4598C82.0364 16.6498 82.4195 19.3027 82.4195 22.9847C82.4195 25.7077 82.2195 27.5029 83.3395 28.6209C84.3145 29.5989 85.6505 29.5487 88.9835 29.5487C92.2215 29.5497 93.6215 29.6387 94.6295 28.6307ZM84.9015 22.9989C84.9008 22.4595 85.0066 21.9255 85.2127 21.4271C85.4188 20.9287 85.7212 20.4759 86.1027 20.0946C86.4841 19.7132 86.937 19.4109 87.4355 19.2049C87.9339 18.9989 88.4681 18.8931 89.0074 18.8939C90.0962 18.8939 91.1403 19.3262 91.9102 20.096C92.68 20.8659 93.1125 21.9102 93.1125 22.9989C93.1109 24.0877 92.6769 25.1314 91.9059 25.9002C91.135 26.6691 90.0903 27.1003 89.0015 27.099C87.9141 27.099 86.8713 26.6667 86.1024 25.8978C85.3335 25.1289 84.9015 24.0863 84.9015 22.9989ZM86.3415 22.9989C86.3414 23.3489 86.4102 23.6954 86.5441 24.0189C86.6779 24.3423 86.8742 24.6366 87.1216 24.8841C87.3691 25.1317 87.663 25.3278 87.9864 25.4618C88.3098 25.5958 88.6564 25.6649 89.0065 25.6649C89.3565 25.665 89.7031 25.5962 90.0265 25.4623C90.3499 25.3283 90.6437 25.1317 90.8912 24.8841C91.1386 24.6365 91.3348 24.3424 91.4685 24.0189C91.6022 23.6954 91.6709 23.3489 91.6705 22.9989C91.6706 22.649 91.6018 22.3026 91.468 21.9793C91.3341 21.6561 91.1379 21.3625 90.8905 21.1151C90.6431 20.8677 90.3493 20.6713 90.0261 20.5374C89.7028 20.4036 89.3563 20.3347 89.0065 20.3348C88.6563 20.3343 88.3094 20.4028 87.9858 20.5365C87.6621 20.6701 87.3679 20.8662 87.1201 21.1136C86.8723 21.361 86.6758 21.6549 86.5416 21.9784C86.4075 22.3018 86.3384 22.6487 86.3384 22.9989H86.3415ZM92.3155 18.7318C92.3156 18.6058 92.3405 18.4814 92.3889 18.3651C92.4372 18.2488 92.5079 18.143 92.597 18.054C92.6862 17.9651 92.792 17.8946 92.9084 17.8465C93.0248 17.7985 93.1495 17.7736 93.2754 17.7738C93.5296 17.7738 93.7734 17.8749 93.9532 18.0545C94.1331 18.2342 94.2342 18.4776 94.2344 18.7318C94.2346 18.8578 94.2099 18.9826 94.1617 19.099C94.1136 19.2154 94.0429 19.3214 93.9539 19.4105C93.8648 19.4996 93.759 19.5699 93.6426 19.618C93.5262 19.6662 93.4014 19.6909 93.2754 19.6908C93.1489 19.6913 93.0236 19.6666 92.9066 19.6185C92.7895 19.5704 92.6832 19.4999 92.5937 19.4105C92.5042 19.3211 92.4333 19.2145 92.385 19.0975C92.3367 18.9805 92.312 18.8554 92.3124 18.7289L92.3155 18.7318Z" fill="#131821"/>
<circle cx="23" cy="23" r="22" stroke="#E3E3E4" stroke-width="2"/>
<path opacity="0.3" d="M24 20V18.5C24 18.2348 24.1054 17.9804 24.2929 17.7929C24.4804 17.6054 24.7348 17.5 25 17.5H26V15H24C23.2044 15 22.4413 15.3161 21.8787 15.8787C21.3161 16.4413 21 17.2044 21 18V20H19V23H21V31H24V23H26L27 20H24Z" fill="#131821"/>
</svg>
